2.8Hzlow3min_grf.mot
version=1
nRows=17
nColumns 19
inDegrees=yes
endheader
time	1_ground_force_vx	1_ground_force_vy	1_ground_force_vz	1_ground_force_px	1_ground_force_py	1_ground_force_pz	1_ground_torque_x	1_ground_torque_y	1_ground_torque_z	2_ground_force_vx	2_ground_force_vy	2_ground_force_vz	2_ground_force_px	2_ground_force_py	2_ground_force_pz	2_ground_torque_x	2_ground_torque_y	2_ground_torque_z
            0.005000	            0.094778	           -0.726157	            1.188934	           -0.221669	            0.006332	           -0.430335	           -0.088010	            0.046446	           -0.033243	            0.092871	            0.185826	           -0.374808	           -0.242052	            0.005544	           -0.679229	           -0.187451	           -0.123227	           -0.094610
            0.005500	            0.185667	           -0.724763	            0.867715	           -0.221669	            0.006332	           -0.430335	           -0.112309	           -0.035913	           -0.217608	            0.236017	           -0.549758	           -0.518280	           -0.242052	            0.005544	           -0.679229	           -0.168658	           -0.123227	           -0.075767
            0.006000	            0.093981	           -0.724780	            0.867943	           -0.221669	            0.006332	           -0.430335	           -0.130894	           -0.091741	           -0.146518	            0.419888	            0.373334	           -0.984355	           -0.242052	            0.005544	           -0.679229	           -0.149797	           -0.132948	            0.018442
            0.006500	           -0.089406	           -1.265416	            0.820223	           -0.221669	            0.006332	           -0.430335	           -0.128427	           -0.073663	           -0.079054	            0.375053	           -0.179448	           -0.939379	           -0.242052	            0.005544	           -0.679229	           -0.149696	           -0.152122	            0.093775
            0.007000	           -0.089505	           -0.724619	            0.822542	           -0.221669	            0.006332	           -0.430335	           -0.129041	           -0.147126	           -0.192175	            0.421964	           -0.179781	           -0.798614	           -0.242052	            0.005544	           -0.679229	           -0.112490	           -0.066441	           -0.037889
            0.007500	            0.231462	           -1.085089	            0.820200	           -0.221669	            0.006332	           -0.430335	           -0.185064	           -0.045393	           -0.159106	            0.330217	           -0.732229	           -0.894402	           -0.242052	            0.005544	           -0.679229	           -0.225253	           -0.057261	           -0.075507
            0.008000	            0.140198	           -0.905627	            1.004624	           -0.221669	            0.006332	           -0.430335	           -0.136471	            0.009638	           -0.068916	            0.094077	           -0.181467	           -0.657690	           -0.242052	            0.005544	           -0.679229	           -0.037416	           -0.056448	           -0.113288
            0.008500	           -0.318591	           -0.184260	            0.917142	           -0.221669	            0.006332	           -0.430335	           -0.076808	            0.037247	           -0.107317	           -0.091891	           -0.551277	           -0.424284	           -0.242052	            0.005544	           -0.679229	           -0.168802	           -0.085349	           -0.094483
            0.009000	            0.231641	           -1.445817	            0.864510	           -0.221669	            0.006332	           -0.430335	           -0.017895	            0.010182	           -0.178068	            0.235270	           -0.364940	           -0.705335	           -0.242052	            0.005544	           -0.679229	           -0.093747	           -0.056854	           -0.056713
            0.009500	            0.002100	           -0.904671	            0.775686	           -0.221669	            0.006332	           -0.430335	           -0.070428	           -0.055043	           -0.094020	            0.280894	            0.002689	           -0.469401	           -0.242052	            0.005544	           -0.679229	           -0.244087	           -0.056926	           -0.188601
            0.010000	            0.093867	           -0.724584	            0.822087	           -0.221669	            0.006332	           -0.430335	           -0.128700	           -0.119876	           -0.052654	            0.142297	           -0.549929	           -0.565168	           -0.242052	            0.005544	           -0.679229	           -0.056090	           -0.084942	           -0.094531
            0.010500	           -0.043075	           -1.446460	            1.002760	           -0.221669	            0.006332	           -0.430335	           -0.098483	           -0.110764	           -0.039730	           -0.096687	            0.738933	           -0.748182	           -0.242052	            0.005544	           -0.679229	           -0.093516	           -0.122955	           -0.075799
            0.011000	           -0.043938	           -1.084552	            0.683315	           -0.221669	            0.006332	           -0.430335	           -0.085137	           -0.027421	           -0.077015	            0.141612	           -0.365613	           -0.611439	           -0.242052	            0.005544	           -0.679229	           -0.131308	           -0.066240	           -0.113281
            0.011500	            0.002181	           -0.724602	            0.822315	           -0.221669	            0.006332	           -0.430335	           -0.109966	            0.037223	           -0.055936	            0.095406	           -0.549763	           -0.659004	           -0.242052	            0.005544	           -0.679229	           -0.168777	           -0.094734	           -0.113367
            0.012000	           -0.089619	           -0.724423	            0.776686	           -0.221669	            0.006332	           -0.430335	           -0.220828	           -0.027223	           -0.135039	            0.093432	            0.002514	           -0.610105	           -0.242052	            0.005544	           -0.679229	           -0.187334	           -0.142536	            0.018424
            0.012500	            0.047829	           -0.904465	            0.729716	           -0.221669	            0.006332	           -0.430335	           -0.162419	           -0.064124	           -0.129472	            0.046603	            0.002178	           -0.563157	           -0.242052	            0.005544	           -0.679229	           -0.150238	           -0.028430	           -0.131989
            0.013000	            0.140051	           -0.725165	            0.959541	           -0.221669	            0.006332	           -0.430335	            0.071877	           -0.073514	           -0.069796	            0.330423	           -0.733903	           -0.425121	           -0.242052	            0.005544	           -0.679229	           -0.131182	           -0.085616	            0.018603
